<svg width="20" height="20" viewBox="0 0 20 20" fill="none" xmlns="http://www.w3.org/2000/svg">
<path d="M6.27147 2C6.43553 2 6.56155 2.03017 6.66747 2.08682C6.7734 2.14347 6.85653 2.2266 6.91318 2.33253C6.96983 2.43845 7 2.56447 7 2.72853V2.999H13V2.72853C13 2.56447 13.0302 2.43845 13.0868 2.33253C13.1435 2.2266 13.2266 2.14347 13.3325 2.08682C13.4385 2.03017 13.5645 2 13.7285 2H13.7715C13.9355 2 14.0615 2.03017 14.1675 2.08682C14.2734 2.14347 14.3565 2.2266 14.4132 2.33253C14.4698 2.43845 14.5 2.56447 14.5 2.72853L14.5013 3.00712C15.3379 3.03577 15.8231 3.15424 16.3248 3.42256C16.8629 3.71034 17.2897 4.13713 17.5774 4.67524C17.8911 5.26176 18 5.82561 18 6.95486V13.0451C18 14.1744 17.8911 14.7382 17.5774 15.3248C17.2897 15.8629 16.8629 16.2897 16.3248 16.5774C15.7382 16.8911 15.1744 17 14.0451 17H5.95486C4.82561 17 4.26176 16.8911 3.67524 16.5774C3.13714 16.2897 2.71034 15.8629 2.42256 15.3248C2.10889 14.7382 2 14.1744 2 13.0451V6.95486C2 5.82561 2.10889 5.26176 2.42256 4.67524C2.71034 4.13713 3.13714 3.71034 3.67524 3.42256C4.17714 3.15414 4.66244 3.03568 5.49964 3.00709L5.5 2.72853C5.5 2.56447 5.53017 2.43845 5.58682 2.33253C5.64347 2.2266 5.7266 2.14347 5.83253 2.08682C5.93845 2.03017 6.06447 2 6.22853 2H6.27147ZM16.5 9H3.5V13.0451C3.5 13.9479 3.56371 14.2779 3.74528 14.6174C3.89326 14.8941 4.10594 15.1067 4.38264 15.2547C4.72214 15.4363 5.05206 15.5 5.95486 15.5H14.0451C14.9479 15.5 15.2779 15.4363 15.6174 15.2547C15.8941 15.1067 16.1067 14.8941 16.2547 14.6174C16.4363 14.2779 16.5 13.9479 16.5 13.0451V9ZM13 4.499H7V4.77147C7 4.93553 6.96983 5.06155 6.91318 5.16747C6.85653 5.2734 6.7734 5.35653 6.66747 5.41318C6.56155 5.46983 6.43553 5.5 6.27147 5.5H6.22853C6.06447 5.5 5.93845 5.46983 5.83253 5.41318C5.7266 5.35653 5.64347 5.2734 5.58682 5.16747C5.53017 5.06155 5.5 4.93553 5.5 4.77147L5.49845 4.50727C4.92639 4.52845 4.65766 4.5982 4.38264 4.74528C4.10594 4.89326 3.89326 5.10594 3.74528 5.38264C3.56371 5.72214 3.5 6.05206 3.5 6.95486V7.5H16.5V6.95486C16.5 6.05206 16.4363 5.72214 16.2547 5.38264C16.1067 5.10594 15.8941 4.89326 15.6174 4.74528C15.3425 4.59828 15.0739 4.52853 14.5026 4.5073L14.5 4.77147C14.5 4.93553 14.4698 5.06155 14.4132 5.16747C14.3565 5.2734 14.2734 5.35653 14.1675 5.41318C14.0615 5.46983 13.9355 5.5 13.7715 5.5H13.7285C13.5645 5.5 13.4385 5.46983 13.3325 5.41318C13.2266 5.35653 13.1435 5.2734 13.0868 5.16747C13.0302 5.06155 13 4.93553 13 4.77147V4.499Z" fill="#99A2AD"/>
</svg>
