<svg width="25" height="25" viewBox="0 0 25 25" fill="none" xmlns="http://www.w3.org/2000/svg">
<path d="M11.4106 12.4574C11.8028 13.2261 11.4976 14.1672 10.7289 14.5594C9.96024 14.9516 9.01917 14.6464 8.62697 13.8777C7.40566 11.484 7.84676 8.5476 9.77633 6.61802L13.0909 3.30346C15.5317 0.862681 19.489 0.862681 21.9297 3.30346C24.3705 5.74424 24.3705 9.70152 21.9297 12.1423C21.3195 12.7525 20.3302 12.7525 19.72 12.1423C19.1098 11.5321 19.1098 10.5428 19.72 9.93259C20.9404 8.7122 20.9404 6.73356 19.72 5.51317C18.4996 4.29278 16.521 4.29278 15.3006 5.51317L11.986 8.82773C11.0212 9.7926 10.8005 11.2617 11.4106 12.4574ZM13.8271 12.7713C13.4349 12.0026 13.7401 11.0616 14.5087 10.6694C15.2774 10.2772 16.2185 10.5824 16.6107 11.351C17.832 13.7447 17.3909 16.6811 15.4613 18.6107L12.1468 21.9253C9.70598 24.366 5.7487 24.366 3.30792 21.9253C0.867147 19.4845 0.867147 15.5272 3.30792 13.0864C3.91812 12.4762 4.90744 12.4762 5.51763 13.0864C6.12783 13.6966 6.12783 14.6859 5.51763 15.2961C4.29724 16.5165 4.29724 18.4952 5.51763 19.7156C6.73802 20.9359 8.71666 20.9359 9.93705 19.7156L13.2516 16.401C14.2165 15.4361 14.4372 13.967 13.8271 12.7713Z" fill="black"/>
</svg>
