<svg width="16" height="16" viewBox="0 0 16 16" fill="none" xmlns="http://www.w3.org/2000/svg">
<path fill-rule="evenodd" clip-rule="evenodd" d="M11.75 5C11.75 7.07107 10.0711 8.75 8 8.75C5.92893 8.75 4.25 7.07107 4.25 5C4.25 2.92893 5.92893 1.25 8 1.25C10.0711 1.25 11.75 2.92893 11.75 5ZM10.25 5C10.25 6.24264 9.24264 7.25 8 7.25C6.75736 7.25 5.75 6.24264 5.75 5C5.75 3.75736 6.75736 2.75 8 2.75C9.24264 2.75 10.25 3.75736 10.25 5Z" fill="#99A2AD"/>
<path fill-rule="evenodd" clip-rule="evenodd" d="M8.00001 9.5C6.03686 9.5 4.51542 9.75103 3.45958 10.3045C2.92031 10.5872 2.48389 10.9586 2.18488 11.4308C1.8841 11.9059 1.75002 12.4396 1.75002 13V13.25C1.75001 14.2165 2.53351 15 3.50001 15H12.5C13.4669 15 14.25 14.2158 14.25 13.2496V13C14.25 12.4396 14.1159 11.9059 13.8151 11.4308C13.5161 10.9586 13.0797 10.5872 12.5404 10.3045C11.4846 9.75103 9.96317 9.5 8.00001 9.5ZM3.25002 13C3.25002 12.6854 3.32268 12.4378 3.45223 12.2332C3.58354 12.0258 3.801 11.8191 4.15598 11.633C4.88866 11.249 6.11722 11 8.00001 11C9.88281 11 11.1114 11.249 11.844 11.633C12.199 11.8191 12.4165 12.0258 12.5478 12.2332C12.6773 12.4378 12.75 12.6854 12.75 13V13.2496C12.75 13.3881 12.6377 13.5 12.5 13.5H3.50001C3.36194 13.5 3.25001 13.3881 3.25002 13.25L3.25002 13Z" fill="#99A2AD"/>
</svg>
